<?xml version="1.0" encoding="UTF-8" standalone="no"?>
<!-- Created with Inkscape (http://www.inkscape.org/) -->
<svg
   xmlns:dc="http://purl.org/dc/elements/1.1/"
   xmlns:cc="http://creativecommons.org/ns#"
   xmlns:rdf="http://www.w3.org/1999/02/22-rdf-syntax-ns#"
   xmlns:svg="http://www.w3.org/2000/svg"
   xmlns="http://www.w3.org/2000/svg"
   xmlns:sodipodi="http://sodipodi.sourceforge.net/DTD/sodipodi-0.dtd"
   xmlns:inkscape="http://www.inkscape.org/namespaces/inkscape"
   width="282.25507"
   height="270.0687"
   id="svg8515"
   sodipodi:version="0.32"
   inkscape:version="0.46"
   version="1.0"
   sodipodi:docbase="C:\Documents and Settings\Sigurd\Mine dokumenter\Mine bilder"
   sodipodi:docname="Golden_star.svg"
   inkscape:output_extension="org.inkscape.output.svg.inkscape">
  <defs
     id="defs8517" />
  <sodipodi:namedview
     id="base"
     pagecolor="#ffffff"
     bordercolor="#666666"
     borderopacity="1.0"
     gridtolerance="10000"
     guidetolerance="10"
     objecttolerance="10"
     inkscape:pageopacity="0.0"
     inkscape:pageshadow="2"
     inkscape:zoom="2.0105996"
     inkscape:cx="141.12753"
     inkscape:cy="135.03435"
     inkscape:document-units="px"
     inkscape:current-layer="layer1"
     inkscape:window-width="1280"
     inkscape:window-height="750"
     inkscape:window-x="-8"
     inkscape:window-y="-8"
     height="343.5px"
     width="294.19931px"
     showgrid="false" />
  <metadata
     id="metadata8520">
    <rdf:RDF>
      <cc:Work
         rdf:about="">
        <dc:format>image/svg+xml</dc:format>
        <dc:type
           rdf:resource="http://purl.org/dc/dcmitype/StillImage" />
      </cc:Work>
    </rdf:RDF>
  </metadata>
  <g
     inkscape:label="Layer 1"
     inkscape:groupmode="layer"
     id="layer1"
     transform="translate(-198.8725,-145.6783)">
    <path
       style="fill:#faf26f;fill-opacity:1;fill-rule:evenodd;stroke:none;stroke-width:1px;stroke-linecap:butt;stroke-linejoin:miter;stroke-opacity:1"
       d="M 340.49178,293.92046 L 340.16413,151.39295 L 308.38213,250.34309 L 340.49178,293.92046 z"
       id="path3848" />
    <path
       style="fill:#e6d82f;fill-opacity:1;fill-rule:evenodd;stroke:none;stroke-width:1px;stroke-linecap:butt;stroke-linejoin:miter;stroke-opacity:1"
       d="M 340.16413,152.3759 L 371.61848,250.01544 L 340.49178,293.59282 L 340.16413,152.3759 z"
       id="path3850" />
    <path
       style="fill:#a29910;fill-opacity:1;fill-rule:evenodd;stroke:none;stroke-width:1px;stroke-linecap:butt;stroke-linejoin:miter;stroke-opacity:1"
       d="M 340.49178,293.26517 L 475.15571,250.01544 L 371.29083,250.01544 L 340.49178,293.26517 z"
       id="path3852" />
    <path
       style="fill:#e6d82f;fill-opacity:1;fill-rule:evenodd;stroke:none;stroke-width:1px;stroke-linecap:butt;stroke-linejoin:miter;stroke-opacity:1"
       d="M 340.49178,292.93752 L 391.93274,310.63059 L 474.82804,250.01544 L 340.49178,292.93752 z"
       id="path3854" />
    <path
       style="fill:#a29910;fill-opacity:1;fill-rule:evenodd;stroke:none;stroke-width:1px;stroke-linecap:butt;stroke-linejoin:miter;stroke-opacity:1"
       d="M 289.05081,310.63059 L 340.81943,293.26517 L 205.17255,250.01544 L 289.05081,310.63059 z"
       id="path3856" />
    <path
       style="fill:#faf26f;fill-opacity:1;fill-rule:evenodd;stroke:none;stroke-width:1px;stroke-linecap:butt;stroke-linejoin:miter;stroke-opacity:1"
       d="M 340.16413,292.93752 L 256.94116,409.90836 L 289.37846,310.63059 L 340.16413,292.93752 z"
       id="path3858" />
    <path
       style="fill:#e6d82f;fill-opacity:1;fill-rule:evenodd;stroke:none;stroke-width:1px;stroke-linecap:butt;stroke-linejoin:miter;stroke-opacity:1"
       d="M 340.49178,292.93752 L 340.49178,348.63793 L 257.26881,409.58072 L 340.49178,292.93752 z"
       id="path3860" />
    <path
       style="fill:#e6d82f;fill-opacity:1;fill-rule:evenodd;stroke:none;stroke-width:1px;stroke-linecap:butt;stroke-linejoin:miter;stroke-opacity:1"
       d="M 340.16413,292.93752 L 391.60509,310.30294 L 423.71474,408.59779 L 340.16413,292.93752 z"
       id="path3862" />
    <path
       style="fill:#a29910;fill-opacity:1;fill-rule:evenodd;stroke:none;stroke-width:1px;stroke-linecap:butt;stroke-linejoin:miter;stroke-opacity:1"
       d="M 340.16413,348.63793 L 423.05944,407.94247 L 339.50883,292.28222 L 340.16413,348.63793 z"
       id="path3864" />
    <path
       style="fill:#d2c308;fill-opacity:1;fill-rule:evenodd;stroke:none;stroke-width:1px;stroke-linecap:butt;stroke-linejoin:miter;stroke-opacity:1"
       d="M 308.0539,250.34251 L 340.49115,293.91974 L 204.84464,250.01487 L 308.0539,250.34251 z"
       id="path3882" />
    <path
       style="fill:#8c823f;fill-opacity:1;fill-rule:evenodd;stroke:none;stroke-width:0.24921601px;stroke-linecap:butt;stroke-linejoin:miter;stroke-opacity:1"
       d="M 140.84375 6.6875 L 141.5 146.78125 L 140 146.46875 L 139.96875 146.59375 L 139.9375 146.71875 L 139.96875 146.71875 L 141.09375 147 L 140.59375 147.6875 L 140.6875 147.375 L 6.6875 104.46875 L 6.5625 104.84375 L 140.5625 147.78125 L 58.625 264.15625 L 58.8125 264.28125 L 142.03125 147 L 142.0625 146.96875 L 142.0625 146.90625 L 141.09375 6.6875 L 140.84375 6.6875 z M 141.625 118.9375 L 141.8125 146.875 L 141.75 146.96875 L 141.75 146.90625 L 141.625 118.9375 z M 141.40625 147 L 141.59375 147.03125 L 141.6875 147.0625 L 98.375 208.125 L 141.40625 147 z "
       transform="translate(198.8725,145.6783)"
       id="path3866" />
  </g>
</svg>
